<?xml version="1.0" encoding="iso-8859-1"?>
<!-- Generator: Adobe Illustrator 19.0.0, SVG Export Plug-In . SVG Version: 6.00 Build 0)  -->
<svg version="1.1" id="Capa_1" xmlns="http://www.w3.org/2000/svg" xmlns:xlink="http://www.w3.org/1999/xlink" x="0px" y="0px"
	 viewBox="0 0 512 512" style="enable-background:new 0 0 512 512;" xml:space="preserve">
<g>
	<g>
		<path d="M132.752,435.943c-5.52,0-9.999,4.48-9.999,9.999c0,5.52,4.48,9.999,9.999,9.999c5.52,0,9.999-4.48,9.999-9.999
			C142.751,440.423,138.272,435.943,132.752,435.943z"/>
	</g>
</g>
<g>
	<g>
		<path d="M504.164,393.944c-0.039-0.076-0.079-0.151-0.12-0.226L317.659,52.922C305.256,29.84,282.206,16.06,256.001,16.06
			c-0.002,0,0,0-0.001,0c-26.204,0-49.257,13.781-61.625,36.797L7.956,393.717c-0.041,0.075-0.082,0.152-0.121,0.228
			c-23.963,46.629,9.944,101.995,62.26,101.995h371.818C494.35,495.94,528.089,440.476,504.164,393.944z M441.915,475.941H70.096
			c-37.344,0-61.527-39.478-44.528-72.747L211.955,62.389c8.859-16.487,25.326-26.33,44.044-26.33
			c18.719,0,35.184,9.843,44.078,26.394l186.357,340.743C503.43,436.448,479.289,475.941,441.915,475.941z"/>
	</g>
</g>
<g>
	<g>
		<path d="M468.943,412.886c-0.042-0.081-0.084-0.161-0.128-0.241L282.43,71.848c-5.319-9.888-15.198-15.792-26.425-15.792
			c-11.233,0-21.116,5.904-26.401,15.731L43.534,412.006c-0.041,0.076-0.082,0.151-0.121,0.228
			c-10.245,19.938,4.216,43.708,26.672,43.708h22.669c5.522,0,9.999-4.477,9.999-9.999c0-5.523-4.478-9.999-9.999-9.999H70.086
			c-7.546,0-12.249-7.876-8.935-14.47L247.182,81.321c2.342-4.354,6.091-5.268,8.823-5.268c2.728,0,6.472,0.914,8.846,5.329
			l186.341,340.717c2.713,5.469-1.435,13.843-9.277,13.843H172.75c-5.522,0-9.999,4.477-9.999,9.999s4.478,9.999,9.999,9.999
			h269.164C464.88,455.941,478.481,431.514,468.943,412.886z"/>
	</g>
</g>
<g>
	<g>
		<path d="M324.281,250.348c-1.86-2.748-4.962-4.394-8.28-4.394h-49.997V145.96c0-4.794-3.401-8.912-8.109-9.819
			c-4.708-0.906-9.395,1.655-11.175,6.106l-59.996,149.991c-1.232,3.081-0.855,6.572,1.005,9.319c1.86,2.748,4.962,4.394,8.28,4.394
			h49.997v99.994c0,4.793,3.401,8.912,8.109,9.819c4.727,0.909,9.401-1.674,11.175-6.106l59.996-149.991
			C326.518,256.587,326.141,253.096,324.281,250.348z M266.005,354.022v-58.071c0-5.523-4.478-9.999-9.999-9.999h-45.227
			l35.227-88.069v58.071c0,5.523,4.478,9.999,9.999,9.999h45.227L266.005,354.022z"/>
	</g>
</g>
<g>
</g>
<g>
</g>
<g>
</g>
<g>
</g>
<g>
</g>
<g>
</g>
<g>
</g>
<g>
</g>
<g>
</g>
<g>
</g>
<g>
</g>
<g>
</g>
<g>
</g>
<g>
</g>
<g>
</g>
</svg>
